<svg id="Capa_1" enable-background="new 0 0 512 512" height="512" viewBox="0 0 512 512" width="512" xmlns="http://www.w3.org/2000/svg"><g><path d="m46 285v.383c-18.104 13.705-30 36.213-30 60.617 0 41.353 33.647 76 75 76h30c8.291 0 15-6.709 15-15v-122c0-8.291-6.709-15-15-15h-30c-5.136 0-10.151.529-15 1.518v-1.518c0-99.258 80.742-180 180-180s180 80.742 180 180v1.518c-4.849-.989-9.864-1.518-15-1.518h-30c-8.291 0-15 6.709-15 15v122c0 8.291 6.709 15 15 15h15v15c0 8.276-6.724 15-15 15h-77.763c-6.213-17.422-22.707-30-42.237-30-24.814 0-45 20.186-45 45s20.186 45 45 45c19.53 0 36.024-12.578 42.237-30h77.763c24.814 0 45-20.186 45-45v-16.518c34.191-6.969 60-38.266 60-74.482 0-24.404-11.896-46.912-30-60.617v-75.383c0-115.796-94.204-210-210-210s-210 94.204-210 210z"/></g></svg>