<svg width="513" height="513" viewBox="0 0 513 513" fill="none" xmlns="http://www.w3.org/2000/svg">
<g clip-path="url(#clip0)">
<path fill-rule="evenodd" clip-rule="evenodd" d="M496 80.004C500.736 80.004 505.248 82.116 508.288 85.764C511.328 89.38 512.608 94.18 511.744 98.884L479.744 274.884C478.4 282.18 472.192 287.588 464.8 287.972L159.52 303.332C159.264 303.364 158.976 303.364 158.72 303.364C151.488 303.364 145.152 298.532 143.264 291.492L92.0638 100.132C90.7838 95.332 91.8078 90.212 94.8158 86.244C97.8558 82.308 102.56 80.004 107.52 80.004H496ZM384 224.004C384 232.836 391.168 240.004 400 240.004C408.832 240.004 416 232.836 416 224.004V160.004C416 151.172 408.832 144.004 400 144.004C391.168 144.004 384 151.172 384 160.004V224.004ZM304 240.004C295.168 240.004 288 232.836 288 224.004V160.004C288 151.172 295.168 144.004 304 144.004C312.832 144.004 320 151.172 320 160.004V224.004C320 232.836 312.832 240.004 304 240.004ZM192 224.004C192 232.836 199.168 240.004 208 240.004C216.832 240.004 224 232.836 224 224.004V160.004C224 151.172 216.832 144.004 208 144.004C199.168 144.004 192 151.172 192 160.004V224.004Z" fill="white"/>
<path d="M208 496.004C234.51 496.004 256 474.514 256 448.004C256 421.494 234.51 400.004 208 400.004C181.49 400.004 160 421.494 160 448.004C160 474.514 181.49 496.004 208 496.004Z" fill="white"/>
<path d="M400 496.004C426.51 496.004 448 474.514 448 448.004C448 421.494 426.51 400.004 400 400.004C373.49 400.004 352 421.494 352 448.004C352 474.514 373.49 496.004 400 496.004Z" fill="white"/>
<path d="M432 368.004H176C168.736 368.004 162.4 363.14 160.544 356.132L78.272 48.004H16C7.168 48.004 0 40.836 0 32.004C0 23.172 7.168 16.004 16 16.004H90.56C97.824 16.004 104.16 20.868 106.016 27.876L188.288 336.004H432C440.832 336.004 448 343.172 448 352.004C448 360.836 440.832 368.004 432 368.004Z" fill="white"/>
</g>
<defs>
<clipPath id="clip0">
<rect width="512.008" height="512.008" fill="white"/>
</clipPath>
</defs>
</svg>
