<svg width="469" height="469" viewBox="0 0 469 469" fill="none" xmlns="http://www.w3.org/2000/svg">
<g clip-path="url(#clip0)">
<path d="M234.168 469C111.845 469 11.5217 375.328 0.732506 255.819L191.53 255.819L191.53 319.774C191.53 328.385 196.734 336.165 204.685 339.471C212.656 342.773 221.825 340.943 227.919 334.845L313.194 249.57C321.528 241.236 321.528 227.765 313.194 219.427L227.919 134.156C221.825 128.059 212.656 126.224 204.685 129.53C196.734 132.833 191.53 140.616 191.53 149.227L191.53 213.182L0.73251 213.182C11.5217 93.673 111.845 0.00128014 234.168 0.00129083C363.674 0.00130215 468.666 104.993 468.666 234.499C468.666 364.008 363.674 469 234.168 469V469Z" fill="black"/>
</g>
<defs>
<clipPath id="clip0">
<rect width="469" height="469" fill="white" transform="translate(469 469) rotate(-180)"/>
</clipPath>
</defs>
</svg>
