<svg width="12" height="15" viewBox="0 0 12 15" fill="none" xmlns="http://www.w3.org/2000/svg">
<path d="M2.22222 7.5C2.22222 7.8187 1.97356 8.07692 1.66667 8.07692H0.555556C0.24866 8.07692 0 7.8187 0 7.5C0 7.1813 0.24866 6.92308 0.555556 6.92308H1.66667C1.97359 6.92308 2.22222 7.1813 2.22222 7.5ZM2.22222 3.80769C2.22222 3.48899 1.97356 3.23077 1.66667 3.23077H0.555556C0.24866 3.23077 0 3.48899 0 3.80769C0 4.12639 0.24866 4.38462 0.555556 4.38462H1.66667C1.97359 4.38462 2.22222 4.12639 2.22222 3.80769ZM2.22222 11.1923C2.22222 10.8736 1.97356 10.6154 1.66667 10.6154H0.555556C0.24866 10.6154 0 10.8736 0 11.1923C0 11.511 0.24866 11.7693 0.555556 11.7693H1.66667C1.97359 11.7693 2.22222 11.511 2.22222 11.1923ZM12 1.84615V13.1538C12 14.1734 11.204 15 10.2223 15H2.44451C1.46275 15 0.666732 14.1734 0.666732 13.1538V12.2308H1.66673C2.21807 12.2308 2.66673 11.7648 2.66673 11.1923C2.66673 10.6198 2.21807 10.1538 1.66673 10.1538H0.666667V8.53839H1.66667C2.21801 8.53839 2.66667 8.07248 2.66667 7.49993C2.66667 6.92739 2.21801 6.46147 1.66667 6.46147H0.666667V4.84609H1.66667C2.21801 4.84609 2.66667 4.38017 2.66667 3.80762C2.66667 3.23508 2.21801 2.76916 1.66667 2.76916H0.666667V1.84615C0.666667 0.826629 1.46268 0 2.44444 0H10.2222C11.204 0 12 0.826595 12 1.84615ZM4.95245 5.47246C4.95245 6.45553 5.72 7.2526 6.66667 7.2526C7.61337 7.2526 8.38088 6.45553 8.38088 5.47246C8.38088 4.48938 7.61337 3.69227 6.66667 3.69227C5.72003 3.69231 4.95245 4.48938 4.95245 5.47246ZM9.33333 9.82405C9.33333 8.73183 8.48046 7.84612 7.42866 7.84612H5.9049C4.85291 7.84612 4 8.73187 4 9.82405V10.6154H9.33333V9.82405Z" fill="#FEBF3B"/>
</svg>
