<svg width="15" height="15" viewBox="0 0 15 15" fill="none" xmlns="http://www.w3.org/2000/svg">
<g clip-path="url(#clip0)">
<path d="M7.49994 3.94116L2.15025 8.35141C2.15025 8.35764 2.14869 8.36679 2.14556 8.37927C2.1425 8.39166 2.14087 8.40065 2.14087 8.40704V12.8729C2.14087 13.0341 2.19982 13.1739 2.31769 13.2915C2.43553 13.4093 2.57507 13.4685 2.73634 13.4685H6.30893V9.89574H8.69099V13.4687H12.2635C12.4248 13.4687 12.5645 13.4095 12.6822 13.2915C12.8001 13.174 12.8592 13.0342 12.8592 12.8729V8.40704C12.8592 8.38227 12.8558 8.36357 12.8498 8.35141L7.49994 3.94116Z" fill="#FEBF3B"/>
<path d="M14.8966 7.34656L12.8591 5.65324V1.85721C12.8591 1.77043 12.8312 1.69906 12.7752 1.6432C12.7197 1.58741 12.6483 1.55952 12.5614 1.55952H10.775C10.6881 1.55952 10.6168 1.58741 10.5609 1.6432C10.5052 1.69906 10.4773 1.77046 10.4773 1.85721V3.67146L8.20719 1.77339C8.00892 1.61212 7.77318 1.53149 7.50023 1.53149C7.22731 1.53149 6.9916 1.61212 6.79314 1.77339L0.103386 7.34656C0.0413719 7.39609 0.00738298 7.46276 0.00106097 7.54651C-0.00522845 7.6302 0.0164423 7.70329 0.0661385 7.76528L0.642973 8.45379C0.692669 8.50958 0.757714 8.5437 0.838368 8.55618C0.912831 8.56243 0.987294 8.54066 1.06176 8.49107L7.50003 3.12252L13.9384 8.49103C13.9881 8.53431 14.0531 8.55592 14.1338 8.55592H14.1617C14.2423 8.54366 14.3072 8.50932 14.3571 8.45366L14.934 7.76524C14.9836 7.70313 15.0054 7.63017 14.9989 7.54638C14.9926 7.46286 14.9584 7.39619 14.8966 7.34656Z" fill="#FEBF3B"/>
</g>
<defs>
<clipPath id="clip0">
<rect width="15" height="15" fill="white"/>
</clipPath>
</defs>
</svg>
