<svg width="12" height="15" viewBox="0 0 12 15" fill="none" xmlns="http://www.w3.org/2000/svg">
<path d="M5.90917 7.22552C6.86101 7.22552 7.68524 6.86949 8.35868 6.16706C9.03213 5.46474 9.37351 4.60541 9.37351 3.61264C9.37351 2.62022 9.03213 1.76077 8.35857 1.05823C7.68502 0.356023 6.8609 0 5.90917 0C4.95722 0 4.13321 0.356023 3.45977 1.05834C2.78632 1.76066 2.44482 2.6201 2.44482 3.61264C2.44482 4.60541 2.78632 5.46486 3.45988 6.16717C4.13343 6.86938 4.95754 7.22552 5.90917 7.22552V7.22552Z" fill="#FEBF3B"/>
<path d="M11.9709 11.5342C11.9515 11.2419 11.9122 10.9231 11.8544 10.5864C11.796 10.2472 11.7208 9.92653 11.6309 9.63345C11.5379 9.33053 11.4115 9.03138 11.2552 8.74471C11.093 8.44716 10.9025 8.18807 10.6888 7.97487C10.4652 7.75183 10.1916 7.5725 9.87508 7.44169C9.5597 7.31158 9.2102 7.24566 8.83633 7.24566C8.6895 7.24566 8.54751 7.30849 8.27328 7.49468C8.1045 7.60946 7.90709 7.74221 7.68674 7.88904C7.49833 8.01424 7.24308 8.13154 6.92781 8.23774C6.62022 8.34154 6.30792 8.39418 5.99967 8.39418C5.69142 8.39418 5.37923 8.34154 5.07131 8.23774C4.75637 8.13165 4.50112 8.01435 4.31293 7.88916C4.09466 7.7437 3.89714 7.61095 3.72584 7.49457C3.45194 7.30837 3.30984 7.24554 3.16301 7.24554C2.78903 7.24554 2.43964 7.31158 2.12437 7.44181C1.80811 7.57239 1.53432 7.75171 1.31057 7.97499C1.09691 8.1883 0.906304 8.44728 0.744335 8.74471C0.588181 9.03138 0.461766 9.33041 0.368711 9.63356C0.278838 9.92665 0.203669 10.2472 0.14529 10.5864C0.0874591 10.9226 0.0481738 11.2416 0.0287507 11.5345C0.00965671 11.8215 0 12.1194 0 12.4203C0 13.2033 0.238674 13.8372 0.709329 14.3047C1.17417 14.766 1.78923 15 2.53719 15H9.46281C10.2108 15 10.8256 14.7661 11.2906 14.3047C11.7613 13.8375 12 13.2035 12 12.4202C11.9999 12.1179 11.9901 11.8198 11.9709 11.5342V11.5342Z" fill="#FEBF3B"/>
</svg>
