<svg width="25" height="25" viewBox="0 0 25 25" fill="none" xmlns="http://www.w3.org/2000/svg">
<g clip-path="url(#clip0)">
<path d="M20.5354 12.5C20.0423 12.5 19.6426 12.8998 19.6426 13.3929V22.3213C19.6426 22.8144 19.2428 23.2142 18.7497 23.2142H2.67854C2.18541 23.2142 1.78567 22.8144 1.78567 22.3213V4.46442C1.78567 3.9713 2.18541 3.57156 2.67854 3.57156H13.3927C13.8858 3.57156 14.2855 3.17182 14.2855 2.6787C14.2855 2.18558 13.8858 1.78589 13.3927 1.78589H2.67854C1.19922 1.78589 0 2.98511 0 4.46442V22.3213C0 23.8006 1.19922 24.9998 2.67854 24.9998H18.7498C20.2291 24.9998 21.4283 23.8006 21.4283 22.3213V13.3928C21.4283 12.8998 21.0285 12.5 20.5354 12.5Z" fill="#607D8B"/>
<path d="M23.9991 1.00147C23.358 0.360291 22.4885 0.000153636 21.5818 0.000258266C20.6746 -0.00235749 19.8042 0.358408 19.1649 1.00204L7.40427 12.7617C7.30671 12.86 7.2331 12.9794 7.1891 13.1108L5.40343 18.4678C5.24758 18.9357 5.50052 19.4412 5.96838 19.597C6.05915 19.6273 6.1542 19.6427 6.24983 19.6428C6.34568 19.6427 6.44094 19.6273 6.53197 19.5973L11.8891 17.8116C12.0206 17.7677 12.1402 17.6937 12.2382 17.5956L23.9987 5.83502C25.3335 4.50036 25.3337 2.33629 23.9991 1.00147Z" fill="#607D8B"/>
</g>
<defs>
<clipPath id="clip0">
<rect width="25" height="25" fill="white"/>
</clipPath>
</defs>
</svg>
