<svg width="15" height="15" viewBox="0 0 15 15" fill="none" xmlns="http://www.w3.org/2000/svg">
<g clip-path="url(#clip0)">
<path d="M7.53534 13.1444C8.50316 13.1444 9.28773 12.3598 9.28773 11.392C9.28773 10.4242 8.50316 9.63965 7.53534 9.63965C6.56753 9.63965 5.78296 10.4242 5.78296 11.392C5.78296 12.3598 6.56753 13.1444 7.53534 13.1444Z" fill="#FEBF3B"/>
<path d="M11.7235 7.16982C11.6975 7.1431 11.6701 7.11926 11.6433 7.0947L11.5646 7.0203C11.5516 7.00658 11.5371 6.99646 11.5205 6.98346C9.25457 4.92481 5.78664 5.00643 3.62397 7.1691L3.37043 7.42336L3.01937 7.77442C2.59175 8.20204 2.59392 8.89909 3.02226 9.32744C3.45133 9.75723 4.14838 9.75795 4.57528 9.33033L5.1806 8.72501C6.55592 7.35041 8.79299 7.35041 10.1676 8.72429L10.6046 9.14758C11.0279 9.57086 11.7184 9.57014 12.1439 9.14396C12.3498 8.93882 12.4632 8.66506 12.4639 8.37396C12.4646 8.0843 12.3527 7.81053 12.1468 7.60611L11.7235 7.16982Z" fill="#FEBF3B"/>
<path d="M14.7089 5.00366L14.3448 4.6396C14.3434 4.63816 14.3426 4.63599 14.3398 4.63527L14.0523 4.34634C14.0017 4.29649 13.9468 4.25315 13.889 4.21559C10.1957 0.973033 4.57813 1.07271 1.00257 4.51247C0.985238 4.52836 0.965735 4.5392 0.948399 4.55653L0.291074 5.21458C-0.0989866 5.60392 -0.0968195 6.23741 0.295408 6.62963C0.686914 7.02114 1.3204 7.02403 1.71046 6.63325L2.36779 5.97664C2.37212 5.97087 2.37573 5.96581 2.38007 5.9622C5.27157 3.16893 9.8584 3.15159 12.773 5.90513L13.2902 6.42305C13.6795 6.81239 14.3145 6.81094 14.706 6.41944C15.0968 6.02721 15.0982 5.393 14.7089 5.00366Z" fill="#FEBF3B"/>
</g>
<defs>
<clipPath id="clip0">
<rect width="15" height="15" fill="white"/>
</clipPath>
</defs>
</svg>
