<svg width="15" height="15" viewBox="0 0 15 15" fill="none" xmlns="http://www.w3.org/2000/svg">
<path d="M6.21224 8.78906C4.7805 7.35732 4.45722 5.92558 4.38429 5.35196C4.36391 5.19335 4.41849 5.03429 4.53196 4.92161L5.69059 3.76349C5.86103 3.59316 5.89127 3.3277 5.76352 3.1234L3.91876 0.258886C3.77743 0.0326544 3.48723 -0.0489947 3.24867 0.0703491L0.287174 1.46511C0.0942563 1.5601 -0.0192153 1.76507 0.00268839 1.97899C0.157862 3.45314 0.800541 7.07697 4.36179 10.6385C7.92303 14.2 11.5463 14.8424 13.0213 14.9976C13.2352 15.0195 13.4402 14.906 13.5352 14.7131L14.9299 11.7516C15.0488 11.5135 14.9677 11.2241 14.7424 11.0825L11.8779 9.23829C11.6737 9.11041 11.4083 9.14044 11.2378 9.3107L10.0797 10.4693C9.96701 10.5828 9.80795 10.6374 9.64934 10.617C9.07571 10.5441 7.64398 10.2208 6.21224 8.78906Z" fill="#FEBF3B"/>
<path d="M11.8976 8.01703C11.6119 8.01703 11.3803 7.78545 11.3803 7.49978C11.3779 5.35828 9.64246 3.62285 7.50096 3.62043C7.21529 3.62043 6.98371 3.38885 6.98371 3.10318C6.98371 2.81752 7.21529 2.58594 7.50096 2.58594C10.2136 2.58893 12.4118 4.78718 12.4148 7.49978C12.4148 7.78545 12.1832 8.01703 11.8976 8.01703Z" fill="#FEBF3B"/>
<path d="M14.4838 8.01733C14.1981 8.01733 13.9665 7.78575 13.9665 7.50008C13.9626 3.93089 11.0701 1.03848 7.50096 1.03449C7.21529 1.03449 6.98371 0.802914 6.98371 0.517247C6.98371 0.231579 7.21529 0 7.50096 0C11.6412 0.00456105 14.9965 3.35979 15.001 7.50008C15.001 7.63726 14.9465 7.76882 14.8495 7.86583C14.7525 7.96283 14.621 8.01733 14.4838 8.01733Z" fill="#FEBF3B"/>
</svg>
