<svg width="15" height="15" viewBox="0 0 15 15" fill="none" xmlns="http://www.w3.org/2000/svg">
<g clip-path="url(#clip0)">
<path d="M7.5 0C6.00867 0.00167492 4.5789 0.594845 3.52437 1.64937C2.46985 2.7039 1.87667 4.13367 1.875 5.625C1.875 9.58828 6.84641 14.6053 7.05805 14.817C7.17603 14.9327 7.33472 14.9975 7.5 14.9975C7.66528 14.9975 7.82397 14.9327 7.94195 14.817C8.15359 14.6053 13.125 9.58828 13.125 5.625C13.1233 4.13367 12.5302 2.7039 11.4756 1.64937C10.4211 0.594845 8.99133 0.00167492 7.5 0V0ZM7.5 9.375C6.75832 9.375 6.0333 9.15507 5.41661 8.74301C4.79993 8.33096 4.31928 7.74529 4.03545 7.06006C3.75162 6.37484 3.67736 5.62084 3.82206 4.89341C3.96675 4.16598 4.3239 3.4978 4.84835 2.97335C5.3728 2.4489 6.04098 2.09175 6.76841 1.94706C7.49584 1.80236 8.24984 1.87662 8.93506 2.16045C9.62029 2.44428 10.206 2.92493 10.618 3.54161C11.0301 4.1583 11.25 4.88332 11.25 5.625C11.25 6.61956 10.8549 7.57339 10.1517 8.27665C9.44839 8.97991 8.49456 9.375 7.5 9.375Z" fill="#FEBF3B"/>
</g>
<defs>
<clipPath id="clip0">
<rect width="15" height="15" fill="white"/>
</clipPath>
</defs>
</svg>
